<svg xmlns="http://www.w3.org/2000/svg" width="1360" height="480" viewBox="0 0 1360 480">
  <rect width="1360" height="480" fill="#1b1b1e" />
  <rect x="940" y="19" width="42" height="42" rx="10" fill="#23a55a" /><rect x="987" y="19" width="42" height="42" rx="10" fill="#2f2f2f" /><rect x="1034" y="19" width="42" height="42" rx="10" fill="#666666" /><rect x="1093" y="19" width="42" height="42" rx="10" fill="#2f2f2f" /><rect x="1140" y="19" width="42" height="42" rx="10" fill="#666666" /><rect x="1187" y="19" width="42" height="42" rx="10" fill="#5865f2" /><rect x="1246" y="19" width="42" height="42" rx="10" fill="#2f2f2f" /><rect x="1293" y="19" width="42" height="42" rx="10" fill="#2f2f2f" /><rect x="1340" y="19" width="42" height="42" rx="10" fill="#2f2f2f" /><rect x="940" y="66" width="42" height="42" rx="10" fill="#2f2f2f" /><rect x="987" y="66" width="42" height="42" rx="10" fill="#666666" /><rect x="1034" y="66" width="42" height="42" rx="10" fill="#2f2f2f" /><rect x="1093" y="66" width="42" height="42" rx="10" fill="#666666" /><rect x="1140" y="66" width="42" height="42" rx="10" fill="#2f2f2f" /><rect x="1187" y="66" width="42" height="42" rx="10" fill="#2f2f2f" /><rect x="1246" y="66" width="42" height="42" rx="10" fill="#2f2f2f" /><rect x="1293" y="66" width="42" height="42" rx="10" fill="#666666" /><rect x="1340" y="66" width="42" height="42" rx="10" fill="#2f2f2f" /><rect x="940" y="113" width="42" height="42" rx="10" fill="#2f2f2f" /><rect x="987" y="113" width="42" height="42" rx="10" fill="#5865f2" /><rect x="1034" y="113" width="42" height="42" rx="10" fill="#2f2f2f" /><rect x="1093" y="113" width="42" height="42" rx="10" fill="#666666" /><rect x="1140" y="113" width="42" height="42" rx="10" fill="#2f2f2f" /><rect x="1187" y="113" width="42" height="42" rx="10" fill="#2f2f2f" /><rect x="1246" y="113" width="42" height="42" rx="10" fill="#2f2f2f" /><rect x="1293" y="113" width="42" height="42" rx="10" fill="#666666" /><rect x="1340" y="113" width="42" height="42" rx="10" fill="#2f2f2f" /><rect x="940" y="172" width="42" height="42" rx="10" fill="#666666" /><rect x="987" y="172" width="42" height="42" rx="10" fill="#2f2f2f" /><rect x="1034" y="172" width="42" height="42" rx="10" fill="#2f2f2f" /><rect x="1093" y="172" width="42" height="42" rx="10" fill="#5865f2" /><rect x="1140" y="172" width="42" height="42" rx="10" fill="#2f2f2f" /><rect x="1187" y="172" width="42" height="42" rx="10" fill="#2f2f2f" /><rect x="1246" y="172" width="42" height="42" rx="10" fill="#666666" /><rect x="1293" y="172" width="42" height="42" rx="10" fill="#2f2f2f" /><rect x="1340" y="172" width="42" height="42" rx="10" fill="#2f2f2f" /><rect x="940" y="219" width="42" height="42" rx="10" fill="#2f2f2f" /><rect x="987" y="219" width="42" height="42" rx="10" fill="#2f2f2f" /><rect x="1034" y="219" width="42" height="42" rx="10" fill="#666666" /><rect x="1093" y="219" width="42" height="42" rx="10" fill="#2f2f2f" /><rect x="1140" y="219" width="42" height="42" rx="10" fill="#f0b232" /><rect x="1187" y="219" width="42" height="42" rx="10" fill="#2f2f2f" /><rect x="1246" y="219" width="42" height="42" rx="10" fill="#666666" /><rect x="1293" y="219" width="42" height="42" rx="10" fill="#2f2f2f" /><rect x="1340" y="219" width="42" height="42" rx="10" fill="#2f2f2f" /><rect x="940" y="266" width="42" height="42" rx="10" fill="#2f2f2f" /><rect x="987" y="266" width="42" height="42" rx="10" fill="#2f2f2f" /><rect x="1034" y="266" width="42" height="42" rx="10" fill="#666666" /><rect x="1093" y="266" width="42" height="42" rx="10" fill="#2f2f2f" /><rect x="1140" y="266" width="42" height="42" rx="10" fill="#5865f2" /><rect x="1187" y="266" width="42" height="42" rx="10" fill="#2f2f2f" /><rect x="1246" y="266" width="42" height="42" rx="10" fill="#2f2f2f" /><rect x="1293" y="266" width="42" height="42" rx="10" fill="#2f2f2f" /><rect x="1340" y="266" width="42" height="42" rx="10" fill="#666666" /><rect x="940" y="325" width="42" height="42" rx="10" fill="#2f2f2f" /><rect x="987" y="325" width="42" height="42" rx="10" fill="#666666" /><rect x="1034" y="325" width="42" height="42" rx="10" fill="#2f2f2f" /><rect x="1093" y="325" width="42" height="42" rx="10" fill="#2f2f2f" /><rect x="1140" y="325" width="42" height="42" rx="10" fill="#2f2f2f" /><rect x="1187" y="325" width="42" height="42" rx="10" fill="#666666" /><rect x="1246" y="325" width="42" height="42" rx="10" fill="#2f2f2f" /><rect x="1293" y="325" width="42" height="42" rx="10" fill="#5865f2" /><rect x="1340" y="325" width="42" height="42" rx="10" fill="#2f2f2f" /><rect x="940" y="372" width="42" height="42" rx="10" fill="#2f2f2f" /><rect x="987" y="372" width="42" height="42" rx="10" fill="#666666" /><rect x="1034" y="372" width="42" height="42" rx="10" fill="#2f2f2f" /><rect x="1093" y="372" width="42" height="42" rx="10" fill="#5865f2" /><rect x="1140" y="372" width="42" height="42" rx="10" fill="#2f2f2f" /><rect x="1187" y="372" width="42" height="42" rx="10" fill="#666666" /><rect x="1246" y="372" width="42" height="42" rx="10" fill="#2f2f2f" /><rect x="1293" y="372" width="42" height="42" rx="10" fill="#2f2f2f" /><rect x="1340" y="372" width="42" height="42" rx="10" fill="#2f2f2f" /><rect x="940" y="419" width="42" height="42" rx="10" fill="#2f2f2f" /><rect x="987" y="419" width="42" height="42" rx="10" fill="#2f2f2f" /><rect x="1034" y="419" width="42" height="42" rx="10" fill="#666666" /><rect x="1093" y="419" width="42" height="42" rx="10" fill="#2f2f2f" /><rect x="1140" y="419" width="42" height="42" rx="10" fill="#666666" /><rect x="1187" y="419" width="42" height="42" rx="10" fill="#2f2f2f" /><rect x="1246" y="419" width="42" height="42" rx="10" fill="#666666" /><rect x="1293" y="419" width="42" height="42" rx="10" fill="#5865f2" /><rect x="1340" y="419" width="42" height="42" rx="10" fill="#f23f43" />
  <text x="98" y="160" font-family="Spline Sans Mono" font-weight="700" font-size="78" letter-spacing="-1"><tspan fill="#5865f2">Expert</tspan><tspan fill="#e6e6e6">Sudoku</tspan></text>
  <text x="100" y="222" font-family="Spline Sans Mono" font-weight="700" font-size="30" fill="#8a8a8a">One grid a day. Pick your pain.</text>
  <path d="M 507.5 294.5 l 5.5 5.5 l -5.5 5.5 l -5.5 -5.5 Z" fill="#23a55a" /><text x="562" y="310" font-family="Spline Sans Mono" font-weight="700" font-size="30"><tspan fill="#23a55a">Medium</tspan><tspan fill="#8a8a8a">Sudoku</tspan></text>
  <path d="M 507.5 349.5 l 5.5 5.5 l -5.5 5.5 l -5.5 -5.5 Z" fill="#f0b232" /><path d="M 525.5 349.5 l 5.5 5.5 l -5.5 5.5 l -5.5 -5.5 Z" fill="#f0b232" /><text x="562" y="365" font-family="Spline Sans Mono" font-weight="700" font-size="30"><tspan fill="#f0b232">Expert</tspan><tspan fill="#8a8a8a">Sudoku</tspan></text>
  <path d="M 507.5 404.5 l 5.5 5.5 l -5.5 5.5 l -5.5 -5.5 Z" fill="#f23f43" /><path d="M 525.5 404.5 l 5.5 5.5 l -5.5 5.5 l -5.5 -5.5 Z" fill="#f23f43" /><path d="M 543.5 404.5 l 5.5 5.5 l -5.5 5.5 l -5.5 -5.5 Z" fill="#f23f43" /><text x="562" y="420" font-family="Spline Sans Mono" font-weight="700" font-size="30"><tspan fill="#f23f43">Hell</tspan><tspan fill="#8a8a8a">Sudoku</tspan></text>
</svg>