<svg xmlns="http://www.w3.org/2000/svg" width="1360" height="544" viewBox="0 0 1360 544">
  <rect width="1360" height="544" fill="#1b1b1e" />
  <rect x="904" y="33" width="46" height="46" rx="10" fill="#23a55a" /><rect x="955" y="33" width="46" height="46" rx="10" fill="#2f2f2f" /><rect x="1006" y="33" width="46" height="46" rx="10" fill="#666666" /><rect x="1069" y="33" width="46" height="46" rx="10" fill="#2f2f2f" /><rect x="1120" y="33" width="46" height="46" rx="10" fill="#666666" /><rect x="1171" y="33" width="46" height="46" rx="10" fill="#5865f2" /><rect x="1234" y="33" width="46" height="46" rx="10" fill="#2f2f2f" /><rect x="1285" y="33" width="46" height="46" rx="10" fill="#2f2f2f" /><rect x="1336" y="33" width="46" height="46" rx="10" fill="#2f2f2f" /><rect x="904" y="84" width="46" height="46" rx="10" fill="#2f2f2f" /><rect x="955" y="84" width="46" height="46" rx="10" fill="#666666" /><rect x="1006" y="84" width="46" height="46" rx="10" fill="#2f2f2f" /><rect x="1069" y="84" width="46" height="46" rx="10" fill="#666666" /><rect x="1120" y="84" width="46" height="46" rx="10" fill="#2f2f2f" /><rect x="1171" y="84" width="46" height="46" rx="10" fill="#2f2f2f" /><rect x="1234" y="84" width="46" height="46" rx="10" fill="#2f2f2f" /><rect x="1285" y="84" width="46" height="46" rx="10" fill="#666666" /><rect x="1336" y="84" width="46" height="46" rx="10" fill="#2f2f2f" /><rect x="904" y="135" width="46" height="46" rx="10" fill="#2f2f2f" /><rect x="955" y="135" width="46" height="46" rx="10" fill="#5865f2" /><rect x="1006" y="135" width="46" height="46" rx="10" fill="#2f2f2f" /><rect x="1069" y="135" width="46" height="46" rx="10" fill="#666666" /><rect x="1120" y="135" width="46" height="46" rx="10" fill="#2f2f2f" /><rect x="1171" y="135" width="46" height="46" rx="10" fill="#2f2f2f" /><rect x="1234" y="135" width="46" height="46" rx="10" fill="#2f2f2f" /><rect x="1285" y="135" width="46" height="46" rx="10" fill="#666666" /><rect x="1336" y="135" width="46" height="46" rx="10" fill="#2f2f2f" /><rect x="904" y="198" width="46" height="46" rx="10" fill="#666666" /><rect x="955" y="198" width="46" height="46" rx="10" fill="#2f2f2f" /><rect x="1006" y="198" width="46" height="46" rx="10" fill="#2f2f2f" /><rect x="1069" y="198" width="46" height="46" rx="10" fill="#5865f2" /><rect x="1120" y="198" width="46" height="46" rx="10" fill="#2f2f2f" /><rect x="1171" y="198" width="46" height="46" rx="10" fill="#2f2f2f" /><rect x="1234" y="198" width="46" height="46" rx="10" fill="#666666" /><rect x="1285" y="198" width="46" height="46" rx="10" fill="#2f2f2f" /><rect x="1336" y="198" width="46" height="46" rx="10" fill="#2f2f2f" /><rect x="904" y="249" width="46" height="46" rx="10" fill="#2f2f2f" /><rect x="955" y="249" width="46" height="46" rx="10" fill="#2f2f2f" /><rect x="1006" y="249" width="46" height="46" rx="10" fill="#666666" /><rect x="1069" y="249" width="46" height="46" rx="10" fill="#2f2f2f" /><rect x="1120" y="249" width="46" height="46" rx="10" fill="#f0b232" /><rect x="1171" y="249" width="46" height="46" rx="10" fill="#2f2f2f" /><rect x="1234" y="249" width="46" height="46" rx="10" fill="#666666" /><rect x="1285" y="249" width="46" height="46" rx="10" fill="#2f2f2f" /><rect x="1336" y="249" width="46" height="46" rx="10" fill="#2f2f2f" /><rect x="904" y="300" width="46" height="46" rx="10" fill="#2f2f2f" /><rect x="955" y="300" width="46" height="46" rx="10" fill="#2f2f2f" /><rect x="1006" y="300" width="46" height="46" rx="10" fill="#666666" /><rect x="1069" y="300" width="46" height="46" rx="10" fill="#2f2f2f" /><rect x="1120" y="300" width="46" height="46" rx="10" fill="#5865f2" /><rect x="1171" y="300" width="46" height="46" rx="10" fill="#2f2f2f" /><rect x="1234" y="300" width="46" height="46" rx="10" fill="#2f2f2f" /><rect x="1285" y="300" width="46" height="46" rx="10" fill="#2f2f2f" /><rect x="1336" y="300" width="46" height="46" rx="10" fill="#666666" /><rect x="904" y="363" width="46" height="46" rx="10" fill="#2f2f2f" /><rect x="955" y="363" width="46" height="46" rx="10" fill="#666666" /><rect x="1006" y="363" width="46" height="46" rx="10" fill="#2f2f2f" /><rect x="1069" y="363" width="46" height="46" rx="10" fill="#2f2f2f" /><rect x="1120" y="363" width="46" height="46" rx="10" fill="#2f2f2f" /><rect x="1171" y="363" width="46" height="46" rx="10" fill="#666666" /><rect x="1234" y="363" width="46" height="46" rx="10" fill="#2f2f2f" /><rect x="1285" y="363" width="46" height="46" rx="10" fill="#5865f2" /><rect x="1336" y="363" width="46" height="46" rx="10" fill="#2f2f2f" /><rect x="904" y="414" width="46" height="46" rx="10" fill="#2f2f2f" /><rect x="955" y="414" width="46" height="46" rx="10" fill="#666666" /><rect x="1006" y="414" width="46" height="46" rx="10" fill="#2f2f2f" /><rect x="1069" y="414" width="46" height="46" rx="10" fill="#5865f2" /><rect x="1120" y="414" width="46" height="46" rx="10" fill="#2f2f2f" /><rect x="1171" y="414" width="46" height="46" rx="10" fill="#666666" /><rect x="1234" y="414" width="46" height="46" rx="10" fill="#2f2f2f" /><rect x="1285" y="414" width="46" height="46" rx="10" fill="#2f2f2f" /><rect x="1336" y="414" width="46" height="46" rx="10" fill="#2f2f2f" /><rect x="904" y="465" width="46" height="46" rx="10" fill="#2f2f2f" /><rect x="955" y="465" width="46" height="46" rx="10" fill="#2f2f2f" /><rect x="1006" y="465" width="46" height="46" rx="10" fill="#666666" /><rect x="1069" y="465" width="46" height="46" rx="10" fill="#2f2f2f" /><rect x="1120" y="465" width="46" height="46" rx="10" fill="#666666" /><rect x="1171" y="465" width="46" height="46" rx="10" fill="#2f2f2f" /><rect x="1234" y="465" width="46" height="46" rx="10" fill="#666666" /><rect x="1285" y="465" width="46" height="46" rx="10" fill="#5865f2" /><rect x="1336" y="465" width="46" height="46" rx="10" fill="#f23f43" />
  <rect x="100" y="118" width="40" height="40" rx="9" fill="#23a55a" /><rect x="146" y="118" width="40" height="40" rx="9" fill="#2f2f2f" /><rect x="192" y="118" width="40" height="40" rx="9" fill="#2f2f2f" /><rect x="100" y="164" width="40" height="40" rx="9" fill="#2f2f2f" /><rect x="146" y="164" width="40" height="40" rx="9" fill="#f0b232" /><rect x="192" y="164" width="40" height="40" rx="9" fill="#2f2f2f" /><rect x="100" y="210" width="40" height="40" rx="9" fill="#2f2f2f" /><rect x="146" y="210" width="40" height="40" rx="9" fill="#2f2f2f" /><rect x="192" y="210" width="40" height="40" rx="9" fill="#f23f43" />
  <text x="98" y="330" font-family="Spline Sans Mono" font-weight="700" font-size="78" letter-spacing="-1"><tspan fill="#5865f2">Expert</tspan><tspan fill="#e6e6e6">Sudoku</tspan></text>
  <text x="100" y="392" font-family="Spline Sans Mono" font-weight="700" font-size="30" fill="#8a8a8a">One grid a day. Pick your pain.</text>
</svg>